<svg width="487" height="218" viewBox="0 0 487 218" fill="none" xmlns="http://www.w3.org/2000/svg">
<path d="M487 115C487 159.183 451.183 195 407 195C362.817 195 327 159.183 327 115C327 70.8172 362.817 35 407 35C451.183 35 487 70.8172 487 115Z" fill="url(#paint0_linear_1052_21)"/>
<path d="M53 218V17H68V218H53ZM20 218V17H35V218H20ZM140.891 218V17H190.891C211.891 17.3333 230.391 21.8333 246.391 30.5C262.391 39.1667 274.891 51 283.891 66C293.224 81 297.891 98.1667 297.891 117.5C297.891 136.833 293.224 154.167 283.891 169.5C274.891 184.5 262.224 196.333 245.891 205C229.891 213.667 211.557 218 190.891 218H140.891ZM107.891 218V17H122.891V218H107.891ZM189.391 32H155.891V50H190.891C212.891 50.3333 230.724 56.6667 244.391 69C258.057 81.3333 264.891 97.5 264.891 117.5C264.891 137.833 257.891 154.167 243.891 166.5C230.224 178.833 212.557 185 190.891 185H155.891V203H189.391C208.057 203 224.391 199.5 238.391 192.5C252.391 185.167 263.224 175 270.891 162C278.891 149 282.891 134.167 282.891 117.5C282.891 100.5 278.891 85.6667 270.891 73C263.224 60 252.391 50 238.391 43C224.391 35.6667 208.057 32 189.391 32ZM189.391 65H155.891V170H189.391C208.057 170 222.724 165.333 233.391 156C244.391 146.667 249.891 133.833 249.891 117.5C249.891 101.167 244.391 88.3333 233.391 79C222.724 69.6667 208.057 65 189.391 65Z" fill="black"/>
<defs>
<linearGradient id="paint0_linear_1052_21" x1="470.2" y1="-17.8" x2="321.4" y2="195" gradientUnits="userSpaceOnUse">
<stop offset="0.142936" stop-color="#833AB4"/>
<stop offset="0.534503" stop-color="#FD1D1D"/>
<stop offset="0.937078" stop-color="#FCB045"/>
</linearGradient>
</defs>
</svg>
