<svg width="278" height="201" viewBox="0 0 278 201" fill="none" xmlns="http://www.w3.org/2000/svg">
<path d="M33 201V-5.00679e-06H48V201H33ZM1.41561e-06 201V-5.00679e-06H15V201H1.41561e-06ZM120.891 201V-5.00679e-06H170.891C191.891 0.333324 210.391 4.83332 226.391 13.5C242.391 22.1667 254.891 34 263.891 49C273.224 64 277.891 81.1667 277.891 100.5C277.891 119.833 273.224 137.167 263.891 152.5C254.891 167.5 242.224 179.333 225.891 188C209.891 196.667 191.557 201 170.891 201H120.891ZM87.8906 201V-5.00679e-06H102.891V201H87.8906ZM169.391 15H135.891V33H170.891C192.891 33.3333 210.724 39.6667 224.391 52C238.057 64.3333 244.891 80.5 244.891 100.5C244.891 120.833 237.891 137.167 223.891 149.5C210.224 161.833 192.557 168 170.891 168H135.891V186H169.391C188.057 186 204.391 182.5 218.391 175.5C232.391 168.167 243.224 158 250.891 145C258.891 132 262.891 117.167 262.891 100.5C262.891 83.5 258.891 68.6667 250.891 56C243.224 43 232.391 33 218.391 26C204.391 18.6667 188.057 15 169.391 15ZM169.391 48H135.891V153H169.391C188.057 153 202.724 148.333 213.391 139C224.391 129.667 229.891 116.833 229.891 100.5C229.891 84.1667 224.391 71.3333 213.391 62C202.724 52.6667 188.057 48 169.391 48Z" fill="white"/>
</svg>
